<svg xmlns="http://www.w3.org/2000/svg" id="canvas" viewBox="693.844 439.223 1060.427 292.091"><path d="M 884.00,450.44 C 882.18 449.64, 880.01 449.99, 875.70 451.00 C 871.40 452.01, 868.71 452.66, 862.47 455.49 C 856.24 458.31, 852.25 460.22, 844.54 465.12 C 836.83 470.03, 832.94 472.57, 823.92 480.00 C 814.90 487.44, 809.70 492.02, 799.44 502.29 C 789.18 512.57, 783.63 518.48, 772.64 531.38 C 761.65 544.27, 754.99 551.95, 744.47 566.76 C 733.96 581.58, 728.34 589.89, 720.07 605.46 C 711.79 621.02, 707.76 629.85, 703.12 644.57 C 698.48 659.29, 697.07 666.81, 696.87 679.06 C 696.66 691.32, 697.67 697.06, 702.10 705.83 C 706.53 714.61, 710.47 718.44, 719.02 722.93 C 727.56 727.42, 733.46 728.50, 744.84 728.29 C 756.21 728.07, 762.77 726.45, 775.89 721.86 C 789.00 717.27, 796.18 713.80, 810.42 705.35 C 824.67 696.90, 832.38 691.46, 847.12 679.60 C 861.85 667.73, 869.92 660.35, 884.09 646.01 C 898.26 631.67, 905.25 623.58, 917.98 607.90 C 930.71 592.21, 937.00 583.43, 947.74 567.60 C 958.47 551.76, 963.59 543.18, 971.64 528.72 C 979.69 514.25, 982.79 507.18, 987.98 495.28 C 993.17 483.39, 994.92 477.92, 997.58 469.22 C 1000.25 460.53, 1001.25 457.07, 1001.31 451.81 C 1001.37 446.54, 1000.35 444.17, 997.88 442.90 C 995.40 441.63, 992.48 441.97, 988.94 445.45 C 985.39 448.94, 984.39 452.06, 980.14 460.31 C 975.90 468.56, 973.43 474.31, 967.72 486.69 C 962.01 499.07, 958.36 507.05, 951.60 522.22 C 944.85 537.38, 941.15 546.16, 933.94 562.51 C 926.73 578.87, 922.56 588.11, 915.57 603.98 C 908.57 619.86, 904.70 628.32, 898.97 641.88 C 893.24 655.44, 890.55 661.69, 886.91 671.77 C 883.27 681.86, 881.72 685.99, 880.77 692.29 C 879.82 698.59, 879.83 701.36, 882.16 703.27 C 884.49 705.18, 887.37 704.82, 892.40 701.84 C 897.44 698.86, 900.07 695.24, 907.33 688.36 C 914.60 681.49, 919.43 676.22, 928.72 667.47 C 938.02 658.72, 943.99 653.21, 953.80 644.62 C 963.62 636.04, 969.50 630.67, 977.80 624.53 C 986.10 618.38, 990.54 616.05, 995.31 613.89 C 1000.07 611.73, 1000.32 612.02, 1001.62 613.72 C 1002.91 615.42, 1002.52 617.06, 1001.78 622.40 C 1001.04 627.73, 999.89 632.71, 997.92 640.40 C 995.96 648.09, 993.70 653.09, 991.94 660.86 C 990.18 668.63, 989.12 672.66, 989.10 679.26 C 989.09 685.87, 989.36 689.51, 991.87 693.89 C 994.37 698.27, 996.71 700.19, 1001.63 701.16 C 1006.55 702.13, 1009.93 701.11, 1016.47 698.74 C 1023.00 696.36, 1026.58 694.28, 1034.31 689.28 C 1042.03 684.29, 1046.58 680.70, 1055.10 673.74 C 1063.62 666.78, 1068.60 662.08, 1076.92 654.47 C 1085.25 646.86, 1089.70 642.32, 1096.74 635.67 C 1103.77 629.02, 1107.87 625.29, 1112.09 621.21 C 1116.31 617.14, 1117.51 615.36, 1117.82 615.27 C 1118.13 615.19, 1116.23 616.36, 1113.66 620.78 C 1111.09 625.21, 1108.87 629.86, 1104.99 637.39 C 1101.12 644.93, 1097.88 650.29, 1094.29 658.48 C 1090.70 666.67, 1088.60 671.48, 1087.04 678.33 C 1085.48 685.18, 1084.95 688.34, 1086.51 692.72 C 1088.06 697.09, 1090.34 699.06, 1094.80 700.18 C 1099.26 701.30, 1102.50 700.58, 1108.81 698.31 C 1115.12 696.04, 1118.89 693.60, 1126.35 688.82 C 1133.81 684.03, 1138.28 680.62, 1146.12 674.39 C 1153.96 668.15, 1158.33 664.08, 1165.55 657.64 C 1172.77 651.20, 1177.10 646.83, 1182.24 642.19 C 1187.37 637.56, 1189.76 636.08, 1191.21 634.46 C 1192.67 632.84, 1190.65 632.13, 1189.51 634.08 C 1188.37 636.03, 1187.59 639.00, 1185.51 644.22 C 1183.43 649.44, 1181.02 653.82, 1179.10 660.18 C 1177.18 666.54, 1175.89 670.42, 1175.91 676.00 C 1175.92 681.59, 1176.18 684.66, 1179.17 688.10 C 1182.15 691.55, 1185.20 692.85, 1190.83 693.23 C 1196.45 693.61, 1199.81 692.52, 1207.30 690.01 C 1214.78 687.50, 1219.12 685.49, 1228.26 680.68 C 1237.40 675.87, 1242.86 672.29, 1253.00 665.98 C 1263.14 659.66, 1268.76 655.57, 1278.95 649.10 C 1289.13 642.63, 1294.70 639.02, 1303.93 633.63 C 1313.16 628.23, 1317.96 625.29, 1325.10 622.14 C 1332.23 618.99, 1335.37 618.22, 1339.60 617.89 C 1343.83 617.56, 1344.66 618.38, 1346.24 620.48 C 1347.82 622.59, 1347.97 623.95, 1347.50 628.41 C 1347.03 632.86, 1345.99 636.54, 1343.89 642.74 C 1341.80 648.93, 1340.13 653.17, 1337.02 659.37 C 1333.91 665.57, 1331.57 669.00, 1328.35 673.75 C 1325.14 678.50, 1322.06 680.15, 1320.94 683.13 C 1319.83 686.10, 1321.13 688.51, 1322.77 688.62 C 1324.41 688.73, 1325.77 687.45, 1329.13 683.68 C 1332.50 679.90, 1334.41 676.01, 1339.60 669.75 C 1344.79 663.49, 1348.09 659.22, 1355.08 652.39 C 1362.06 645.55, 1366.79 641.59, 1374.52 635.56 C 1382.24 629.52, 1386.56 626.50, 1393.70 622.22 C 1400.85 617.95, 1404.39 616.30, 1410.24 614.17 C 1416.10 612.05, 1418.81 611.70, 1422.97 611.61 C 1427.14 611.52, 1428.69 612.69, 1431.07 613.71 C 1433.45 614.72, 1434.06 615.39, 1434.87 616.69 C 1435.68 617.98, 1435.62 618.00, 1435.10 620.19 C 1434.59 622.38, 1434.14 624.29, 1432.28 627.64 C 1430.43 631.00, 1428.71 633.04, 1425.81 636.96 C 1422.90 640.88, 1420.74 643.11, 1417.75 647.24 C 1414.76 651.37, 1413.09 653.54, 1410.85 657.60 C 1408.61 661.67, 1407.31 663.67, 1406.55 667.59 C 1405.79 671.51, 1405.54 673.87, 1407.03 677.20 C 1408.53 680.54, 1410.29 682.70, 1414.01 684.26 C 1417.73 685.82, 1420.14 685.52, 1425.63 685.00 C 1431.11 684.48, 1434.38 683.64, 1441.42 681.66 C 1448.47 679.69, 1452.66 678.25, 1460.86 675.12 C 1469.06 671.98, 1473.64 669.90, 1482.43 665.98 C 1491.21 662.07, 1495.81 659.75, 1504.79 655.53 C 1513.78 651.31, 1518.80 649.00, 1527.35 644.88 C 1535.90 640.75, 1540.31 638.42, 1547.54 634.91 C 1554.78 631.39, 1558.25 629.68, 1563.53 627.30 C 1568.82 624.91, 1571.50 624.87, 1573.99 622.97 C 1576.48 621.07, 1576.63 619.49, 1575.99 617.79 C 1575.36 616.08, 1573.59 614.08, 1570.81 614.45 C 1568.03 614.83, 1566.52 616.69, 1562.10 619.66 C 1557.67 622.62, 1554.69 624.61, 1548.70 629.27 C 1542.72 633.92, 1538.66 636.89, 1532.16 642.95 C 1525.66 649.01, 1521.95 652.93, 1516.20 659.55 C 1510.44 666.17, 1507.21 669.67, 1503.38 676.07 C 1499.55 682.46, 1497.89 685.75, 1497.05 691.50 C 1496.21 697.26, 1496.63 700.80, 1499.18 704.83 C 1501.73 708.85, 1504.16 710.27, 1509.79 711.64 C 1515.43 713.01, 1519.26 713.11, 1527.37 711.69 C 1535.48 710.28, 1540.48 708.91, 1550.34 704.57 C 1560.20 700.23, 1565.40 697.03, 1576.69 689.98 C 1587.97 682.94, 1594.59 678.76, 1606.77 669.34 C 1618.94 659.93, 1625.35 654.32, 1637.55 642.91 C 1649.76 631.50, 1656.35 624.68, 1667.79 612.28 C 1679.24 599.89, 1685.20 593.33, 1694.77 580.94 C 1704.35 568.55, 1708.39 561.68, 1715.65 550.34 C 1722.90 539.01, 1726.02 533.14, 1731.04 524.26 C 1736.07 515.38, 1738.40 511.96, 1740.76 505.95 C 1743.11 499.93, 1743.95 496.73, 1742.81 494.19 C 1741.67 491.65, 1738.74 490.82, 1735.06 493.26 C 1731.38 495.70, 1729.71 499.18, 1724.41 506.40 C 1719.10 513.63, 1715.39 518.63, 1708.52 529.38 C 1701.65 540.14, 1697.66 547.40, 1690.06 560.18 C 1682.47 572.95, 1678.06 580.28, 1670.54 593.26 C 1663.03 606.24, 1658.79 613.16, 1652.50 625.08 C 1646.21 637.00, 1643.26 643.24, 1639.09 652.86 C 1634.93 662.47, 1633.19 666.52, 1631.66 673.15 C 1630.14 679.78, 1629.70 682.31, 1631.48 686.00 C 1633.27 689.68, 1635.96 690.98, 1640.57 691.58 C 1645.18 692.18, 1648.27 690.81, 1654.54 689.00 C 1660.82 687.20, 1664.63 685.06, 1671.96 682.55 C 1679.28 680.04, 1684.30 678.24, 1691.18 676.44 C 1698.06 674.64, 1701.87 673.72, 1706.38 673.56 C 1710.88 673.40, 1711.83 674.16, 1713.70 675.65 C 1715.56 677.14, 1715.47 678.49, 1715.69 681.00 C 1715.90 683.51, 1714.87 684.79, 1714.76 688.19 C 1714.65 691.60, 1714.27 694.04, 1715.13 698.03 C 1716.00 702.02, 1716.77 704.84, 1719.10 708.13 C 1721.43 711.43, 1723.48 712.32, 1726.80 714.51 C 1730.13 716.69, 1732.53 717.57, 1735.73 719.04 C 1738.93 720.51, 1740.31 721.47, 1742.82 721.85 C 1745.34 722.24, 1746.82 721.44, 1748.31 720.96 C 1749.81 720.49, 1749.71 720.13, 1750.30 719.49 C 1750.88 718.85, 1751.21 718.72, 1751.24 717.77 C 1751.27 716.83, 1751.45 716.10, 1750.44 714.77 C 1749.42 713.43, 1748.35 712.18, 1746.17 711.10 C 1743.98 710.03, 1742.45 710.33, 1739.54 709.39 C 1736.62 708.45, 1734.18 707.71, 1731.60 706.40 C 1729.03 705.08, 1728.08 704.87, 1726.65 702.81 C 1725.21 700.76, 1724.97 699.10, 1724.43 696.14 C 1723.89 693.19, 1724.15 691.46, 1723.93 688.04 C 1723.71 684.63, 1724.64 682.61, 1723.33 679.07 C 1722.02 675.54, 1720.81 672.57, 1717.38 670.37 C 1713.95 668.16, 1711.67 667.83, 1706.17 668.05 C 1700.67 668.27, 1697.05 669.55, 1689.87 671.46 C 1682.69 673.37, 1677.66 675.14, 1670.28 677.58 C 1662.91 680.02, 1658.86 681.94, 1652.99 683.64 C 1647.13 685.34, 1644.39 686.02, 1640.94 686.08 C 1637.49 686.15, 1636.87 686.40, 1635.74 683.97 C 1634.61 681.54, 1634.07 679.93, 1635.28 673.93 C 1636.48 667.93, 1637.88 663.52, 1641.76 653.98 C 1645.64 644.43, 1648.51 638.12, 1654.67 626.22 C 1660.84 614.31, 1665.07 607.38, 1672.58 594.44 C 1680.10 581.50, 1684.54 574.16, 1692.27 561.51 C 1700.00 548.85, 1704.15 541.68, 1711.24 531.17 C 1718.33 520.65, 1722.32 515.78, 1727.74 508.95 C 1733.16 502.12, 1736.03 499.82, 1738.34 497.02 C 1740.66 494.23, 1739.55 493.46, 1739.31 494.97 C 1739.06 496.47, 1739.29 498.96, 1737.14 504.54 C 1734.98 510.13, 1733.23 513.98, 1728.53 522.89 C 1723.84 531.80, 1720.76 537.74, 1713.68 549.10 C 1706.60 560.46, 1702.60 567.31, 1693.12 579.67 C 1683.65 592.03, 1677.71 598.57, 1666.31 610.91 C 1654.91 623.26, 1648.31 630.06, 1636.12 641.38 C 1623.94 652.70, 1617.54 658.25, 1605.36 667.51 C 1593.19 676.77, 1586.54 680.88, 1575.26 687.66 C 1563.99 694.45, 1558.72 697.48, 1549.01 701.43 C 1539.29 705.38, 1534.30 706.37, 1526.70 707.42 C 1519.09 708.47, 1515.59 707.77, 1510.98 706.68 C 1506.38 705.60, 1505.49 704.89, 1503.67 702.00 C 1501.85 699.10, 1501.21 696.95, 1501.90 692.21 C 1502.59 687.47, 1503.64 684.26, 1507.12 678.28 C 1510.61 672.29, 1513.72 668.68, 1519.32 662.27 C 1524.92 655.86, 1528.61 651.94, 1535.13 646.23 C 1541.64 640.52, 1545.74 637.77, 1551.90 633.73 C 1558.06 629.68, 1561.47 628.38, 1565.92 626.01 C 1570.36 623.65, 1572.35 623.55, 1574.14 621.89 C 1575.93 620.22, 1575.56 618.66, 1574.86 617.68 C 1574.15 616.70, 1573.34 615.94, 1570.62 616.98 C 1567.90 618.02, 1566.23 619.98, 1561.26 622.86 C 1556.28 625.74, 1552.84 627.61, 1545.75 631.38 C 1538.66 635.15, 1534.28 637.49, 1525.80 641.70 C 1517.32 645.90, 1512.30 648.22, 1503.33 652.40 C 1494.36 656.58, 1489.74 658.87, 1480.96 662.61 C 1472.17 666.35, 1467.56 668.32, 1459.41 671.10 C 1451.25 673.89, 1446.99 675.10, 1440.16 676.55 C 1433.33 677.99, 1429.87 678.28, 1425.26 678.32 C 1420.64 678.37, 1419.23 677.60, 1417.10 676.76 C 1414.96 675.91, 1415.10 675.60, 1414.60 674.09 C 1414.10 672.59, 1414.04 671.83, 1414.60 669.23 C 1415.17 666.62, 1415.65 664.63, 1417.43 661.07 C 1419.21 657.51, 1420.64 655.33, 1423.50 651.44 C 1426.37 647.54, 1428.58 645.53, 1431.77 641.60 C 1434.96 637.68, 1437.04 635.85, 1439.47 631.82 C 1441.90 627.79, 1443.57 625.38, 1443.93 621.46 C 1444.30 617.55, 1443.38 615.16, 1441.29 612.26 C 1439.21 609.37, 1437.28 608.20, 1433.53 606.97 C 1429.78 605.75, 1427.51 605.51, 1422.54 606.14 C 1417.56 606.76, 1414.82 607.54, 1408.66 610.11 C 1402.49 612.68, 1399.00 614.47, 1391.73 618.98 C 1384.45 623.50, 1380.17 626.57, 1372.27 632.67 C 1364.38 638.76, 1359.58 642.70, 1352.28 649.44 C 1344.97 656.18, 1341.34 660.30, 1335.74 666.37 C 1330.13 672.44, 1327.18 675.65, 1324.25 679.80 C 1321.33 683.96, 1320.66 685.69, 1321.11 687.15 C 1321.55 688.61, 1324.03 689.12, 1326.49 687.09 C 1328.95 685.06, 1330.33 682.06, 1333.42 677.00 C 1336.51 671.94, 1338.75 668.28, 1341.92 661.80 C 1345.09 655.31, 1347.00 651.17, 1349.27 644.57 C 1351.54 637.97, 1353.06 634.30, 1353.27 628.80 C 1353.48 623.29, 1353.10 620.12, 1350.30 617.05 C 1347.51 613.97, 1344.62 613.05, 1339.28 613.41 C 1333.94 613.77, 1330.97 615.32, 1323.58 618.83 C 1316.19 622.34, 1311.59 625.41, 1302.35 630.96 C 1293.11 636.52, 1287.57 640.14, 1277.37 646.61 C 1267.17 653.08, 1261.52 657.15, 1251.36 663.31 C 1241.20 669.46, 1235.67 672.92, 1226.59 677.40 C 1217.50 681.88, 1213.01 683.59, 1205.93 685.68 C 1198.84 687.78, 1195.63 688.14, 1191.17 687.89 C 1186.70 687.63, 1185.43 686.73, 1183.61 684.40 C 1181.79 682.08, 1181.64 680.68, 1182.07 676.26 C 1182.49 671.83, 1183.79 668.21, 1185.74 662.27 C 1187.69 656.33, 1189.94 652.06, 1191.81 646.54 C 1193.68 641.02, 1195.69 637.97, 1195.10 634.67 C 1194.52 631.38, 1192.07 629.23, 1188.88 630.06 C 1185.69 630.90, 1184.33 633.92, 1179.15 638.87 C 1173.96 643.82, 1170.06 648.30, 1162.98 654.80 C 1155.91 661.31, 1151.56 665.33, 1143.76 671.38 C 1135.97 677.44, 1131.35 680.64, 1124.02 685.06 C 1116.68 689.48, 1112.72 691.51, 1107.10 693.48 C 1101.47 695.45, 1099.04 695.39, 1095.90 694.93 C 1092.75 694.46, 1092.20 694.26, 1091.35 691.16 C 1090.50 688.05, 1090.18 685.54, 1091.64 679.39 C 1093.10 673.25, 1095.09 668.35, 1098.65 660.41 C 1102.21 652.47, 1105.53 647.20, 1109.43 639.69 C 1113.34 632.18, 1116.36 628.07, 1118.18 622.84 C 1120.01 617.60, 1120.34 614.46, 1118.56 613.50 C 1116.78 612.54, 1114.15 614.12, 1109.29 618.04 C 1104.43 621.96, 1101.18 626.30, 1094.27 633.11 C 1087.35 639.92, 1082.99 644.48, 1074.73 652.07 C 1066.46 659.66, 1061.45 664.29, 1052.93 671.04 C 1044.41 677.79, 1039.76 681.20, 1032.14 685.83 C 1024.53 690.46, 1020.77 692.16, 1014.86 694.18 C 1008.94 696.19, 1006.24 696.47, 1002.56 695.91 C 998.88 695.35, 998.16 694.71, 996.45 691.38 C 994.73 688.06, 993.95 685.17, 994.00 679.29 C 994.04 673.40, 994.89 669.48, 996.67 661.96 C 998.46 654.44, 1000.92 649.50, 1002.93 641.69 C 1004.95 633.87, 1006.36 629.08, 1006.75 622.88 C 1007.13 616.69, 1007.45 613.21, 1004.87 610.72 C 1002.29 608.22, 999.64 608.14, 993.85 610.39 C 988.05 612.65, 984.27 615.56, 975.87 621.97 C 967.48 628.37, 961.74 633.79, 951.87 642.41 C 942.00 651.03, 935.96 656.48, 926.52 665.09 C 917.07 673.70, 911.97 678.86, 904.65 685.46 C 897.33 692.05, 893.93 695.04, 889.90 698.06 C 885.87 701.08, 885.61 701.59, 884.49 700.55 C 883.36 699.51, 883.30 698.45, 884.29 692.87 C 885.28 687.29, 886.10 682.68, 889.44 672.65 C 892.78 662.62, 895.39 656.29, 900.98 642.71 C 906.57 629.14, 910.42 620.66, 917.38 604.78 C 924.34 588.90, 928.52 579.65, 935.78 563.33 C 943.04 547.00, 946.77 538.24, 953.70 523.16 C 960.62 508.09, 964.38 500.15, 970.38 487.96 C 976.38 475.78, 979.21 470.05, 983.69 462.24 C 988.17 454.43, 990.28 452.14, 992.77 448.90 C 995.27 445.67, 995.29 445.50, 996.17 446.05 C 997.04 446.60, 997.45 447.19, 997.16 451.66 C 996.88 456.13, 996.99 459.86, 994.74 468.41 C 992.49 476.96, 990.87 482.52, 985.91 494.40 C 980.96 506.28, 977.90 513.35, 969.98 527.80 C 962.06 542.25, 956.98 550.83, 946.32 566.64 C 935.66 582.45, 929.38 591.22, 916.69 606.85 C 904.00 622.49, 897.02 630.55, 882.87 644.81 C 868.72 659.07, 860.66 666.40, 845.95 678.14 C 831.25 689.89, 823.53 695.25, 809.35 703.53 C 795.18 711.81, 788.00 715.14, 775.08 719.54 C 762.17 723.94, 755.74 725.35, 744.79 725.53 C 733.83 725.71, 728.39 724.60, 720.32 720.43 C 712.25 716.25, 708.67 712.91, 704.44 704.65 C 700.21 696.38, 699.05 690.99, 699.18 679.10 C 699.31 667.20, 700.56 659.73, 705.08 645.18 C 709.60 630.64, 713.57 621.82, 721.77 606.36 C 729.96 590.90, 735.56 582.61, 746.06 567.89 C 756.55 553.17, 763.23 545.53, 774.25 532.76 C 785.27 519.99, 790.85 514.11, 801.17 504.04 C 811.48 493.96, 816.74 489.47, 825.83 482.38 C 834.92 475.28, 838.87 472.95, 846.61 468.56 C 854.34 464.17, 858.38 462.69, 864.51 460.43 C 870.64 458.17, 873.20 458.33, 877.26 457.25 C 881.32 456.17, 883.46 456.38, 884.80 455.02 C 886.15 453.66, 885.82 451.25, 884.00 450.44" style="stroke: black; fill: black;"/></svg>